<svg width="161" height="40" viewBox="0 0 161 40" fill="none" xmlns="http://www.w3.org/2000/svg">
<g clip-path="url(#clip0_233_42)">
<path d="M32.1051 39.4868C29.677 39.4868 27.5086 37.9585 26.6699 35.6566L25.2635 31.7962L25.2504 31.7642L23.3491 26.4396H23.3565L22.7252 24.6924L16.5187 7.4849C16.3842 7.10943 15.8575 7.10943 15.7231 7.4849L9.99467 23.3585L9.85459 23.7509L8.88336 26.4396H8.89083L7.12954 31.3566L0.373891 37.8434C-0.0258069 37.1019 -0.132269 36.1925 0.19272 35.3075L12.4526 1.85849C12.8617 0.743396 13.93 0 15.1272 0H17.1369C18.3342 0 19.4025 0.743396 19.8116 1.86038L33.067 38.0906C33.3154 38.7679 32.8186 39.4868 32.1051 39.4868Z" fill="#F8F7FF"/>
<path d="M18.0275 28.5208L5.4202 39.4868H3.14155C1.91257 39.4868 0.896511 38.8038 0.371674 37.8434L7.12919 31.3566L16.7126 22.1585C17.1571 21.7321 17.8669 21.7434 18.2946 22.1887C20.0316 23.9812 19.9083 26.885 18.0275 28.5208Z" fill="#52ACFF"/>
<path d="M34.9568 15.3566C36.2344 12.9453 37.9919 11.0736 40.2313 9.74336C42.4689 8.41506 44.9586 7.74902 47.7042 7.74902C50.4498 7.74902 52.7621 8.3377 54.755 9.51506C56.7478 10.6924 58.2327 12.1736 59.2114 13.9585V10.1094C59.2114 9.08865 60.0313 8.26034 61.0418 8.26034H62.5696C63.5801 8.26034 64.4 9.08865 64.4 10.1094V38.1283C64.4 38.8773 63.7986 39.483 63.059 39.483H60.5524C59.811 39.483 59.2114 38.8754 59.2114 38.1283V36.0056C59.2114 35.3245 58.3709 34.9943 57.9301 35.5094C57.0485 36.5358 55.9615 37.4339 54.6709 38.2019C52.6593 39.3981 50.3172 39.9962 47.6482 39.9962C44.9792 39.9962 42.4203 39.3132 40.2033 37.9453C37.9844 36.5773 36.2362 34.6603 34.9587 32.1905C33.6793 29.7226 33.0405 26.9113 33.0405 23.7585C33.0405 20.6056 33.6793 17.766 34.9587 15.3547L34.9568 15.3566ZM57.7994 17.6641C56.8599 15.9169 55.5898 14.5792 53.9929 13.6471C52.3941 12.7169 50.6366 12.2509 48.7184 12.2509C46.8002 12.2509 45.052 12.7075 43.4737 13.6188C41.8936 14.5302 40.6348 15.8603 39.6953 17.6075C38.7558 19.3547 38.2851 21.4056 38.2851 23.7603C38.2851 26.1151 38.7558 28.2339 39.6953 30C40.6348 31.766 41.8955 33.1151 43.4737 34.0453C45.052 34.9773 46.8021 35.4415 48.7184 35.4415C50.6347 35.4415 52.3941 34.9773 53.9929 34.0453C55.5898 33.1151 56.8599 31.766 57.7994 30C58.7389 28.2339 59.2095 26.1736 59.2095 23.8169C59.2095 21.4603 58.7389 19.4113 57.7994 17.6641Z" fill="#F8F7FF"/>
<path d="M68.2588 3.91509V39.4868H73.3914V1.26981C73.3914 0.567924 72.8273 0 72.1344 0C69.9939 0 68.2588 1.75283 68.2588 3.91509Z" fill="#F8F7FF"/>
<path d="M82.9187 38.0056C80.5691 36.6773 78.7256 34.7868 77.3921 32.3358C76.0566 29.8849 75.3898 27.0471 75.3898 23.8169C75.3898 20.5868 76.0753 17.8056 77.4481 15.3566C78.8209 12.9056 80.6905 11.0264 83.0607 9.71506C85.429 8.40374 88.0812 7.74902 91.0136 7.74902C93.9459 7.74902 96.5981 8.40374 98.9664 9.71506C101.335 11.0264 103.206 12.8962 104.579 15.3283C105.952 17.7603 106.637 20.5905 106.637 23.8169C106.637 27.0434 105.933 29.8849 104.523 32.3358C103.113 34.7849 101.204 36.6754 98.7983 38.0056C96.3908 39.3358 93.7218 40 90.7894 40C87.8571 40 85.2702 39.3358 82.9206 38.0056H82.9187ZM95.9762 34.132C97.5918 33.2585 98.8992 31.9471 99.8966 30.2C100.892 28.4528 101.391 26.3264 101.391 23.8188C101.391 21.3113 100.901 19.1849 99.9246 17.4377C98.9459 15.6905 97.6683 14.3886 96.0901 13.5339C94.51 12.6792 92.7991 12.2509 90.9575 12.2509C89.1159 12.2509 87.3565 12.6773 85.7969 13.5339C84.2355 14.3886 82.986 15.6905 82.0465 17.4377C81.107 19.1849 80.6363 21.3113 80.6363 23.8188C80.6363 26.3264 81.0958 28.5113 82.0185 30.2566C82.9393 32.0037 84.1701 33.3056 85.7129 34.1603C87.2538 35.0151 88.946 35.4415 90.7894 35.4415C92.6329 35.4415 94.3606 35.0056 95.978 34.1302L95.9762 34.132Z" fill="#F8F7FF"/>
<path d="M118.223 23.817L130.135 11.0849C131.133 10.0189 130.384 8.26415 128.933 8.26415H126.368C125.888 8.26415 125.432 8.47358 125.119 8.83962L113.712 22.1075V0C110.875 0 108.576 2.32075 108.576 5.18491V39.4868H113.709V25.6981L125.617 39.2377C125.756 39.3943 125.954 39.4849 126.163 39.4849H131.142C131.781 39.4849 132.111 38.7132 131.673 38.2434L118.221 23.8151L118.223 23.817Z" fill="#F8F7FF"/>
<path d="M158.393 25.8113H136.127C136.316 28.8887 137.358 31.2906 139.258 33.0189C141.155 34.7472 143.46 35.6113 146.166 35.6113C148.385 35.6113 150.236 35.0887 151.723 34.0453C152.922 33.2019 153.832 32.1302 154.455 30.8283C154.737 30.2378 155.322 29.8566 155.972 29.8566H157.956C159.207 29.8566 160.008 31.1849 159.455 32.3189C158.527 34.2208 157.182 35.8415 155.417 37.1774C152.935 39.0585 149.851 39.9981 146.166 39.9981C143.234 39.9981 140.61 39.334 138.298 38.0038C135.985 36.6755 134.17 34.7849 132.855 32.334C131.538 29.883 130.881 27.0453 130.881 23.8151C130.881 20.5849 131.519 17.7566 132.799 15.3264C134.076 12.8962 135.873 11.0246 138.185 9.71323C140.498 8.40191 143.157 7.74719 146.166 7.74719C149.175 7.74719 151.693 8.39436 153.949 9.68493C156.205 10.9774 157.944 12.7529 159.166 15.0113C160.387 17.2717 160.998 19.8264 160.998 22.6755C160.998 22.8529 160.998 23.0302 160.993 23.2095C160.965 24.6491 159.816 25.8076 158.391 25.8076L158.393 25.8113ZM154.401 16.4962C153.536 15.0717 152.362 13.9887 150.877 13.2491C149.39 12.5076 147.746 12.1378 145.942 12.1378C143.348 12.1378 141.138 12.9736 139.315 14.6453C138.169 15.6962 137.33 17.0019 136.8 18.5642C136.295 20.051 137.407 21.5962 138.962 21.5962H153.947C154.945 21.5962 155.716 20.6944 155.556 19.7C155.363 18.5113 154.978 17.4434 154.405 16.4962H154.401Z" fill="#F8F7FF"/>
</g>
<defs>
<clipPath id="clip0_233_42">
<rect width="161" height="40" fill="white"/>
</clipPath>
</defs>
</svg>
